<mxfile host="app.diagrams.net" modified="2024-02-24T10:33:37.779Z" agent="Mozilla/5.0 (Windows NT 10.0; Win64; x64) AppleWebKit/537.36 (KHTML, like Gecko) Chrome/122.0.0.0 Safari/537.36" etag="6YyHJBvqqqVMG35g-Anw" version="23.1.6" type="device">
  <diagram name="Страница — 1" id="nLTBiu1FJMYzn7UuT-58">
    <mxGraphModel dx="1035" dy="562" grid="1" gridSize="10" guides="1" tooltips="1" connect="1" arrows="1" fold="1" page="1" pageScale="1" pageWidth="1169" pageHeight="827" math="0" shadow="0">
      <root>
        <mxCell id="0" />
        <mxCell id="1" parent="0" />
        <mxCell id="nA8GNcOrHR8l3FSKZK5o-3" style="edgeStyle=orthogonalEdgeStyle;rounded=0;orthogonalLoop=1;jettySize=auto;html=1;entryX=0.5;entryY=0;entryDx=0;entryDy=0;" parent="1" source="nA8GNcOrHR8l3FSKZK5o-1" target="nA8GNcOrHR8l3FSKZK5o-2" edge="1">
          <mxGeometry relative="1" as="geometry" />
        </mxCell>
        <mxCell id="nA8GNcOrHR8l3FSKZK5o-1" value="Н" style="ellipse;whiteSpace=wrap;html=1;" parent="1" vertex="1">
          <mxGeometry x="170" y="50" width="150" height="80" as="geometry" />
        </mxCell>
        <mxCell id="nA8GNcOrHR8l3FSKZK5o-5" style="edgeStyle=orthogonalEdgeStyle;rounded=0;orthogonalLoop=1;jettySize=auto;html=1;" parent="1" source="nA8GNcOrHR8l3FSKZK5o-2" target="nA8GNcOrHR8l3FSKZK5o-4" edge="1">
          <mxGeometry relative="1" as="geometry" />
        </mxCell>
        <mxCell id="nA8GNcOrHR8l3FSKZK5o-2" value="y1, y2, y3" style="rounded=0;whiteSpace=wrap;html=1;" parent="1" vertex="1">
          <mxGeometry x="185" y="170" width="120" height="60" as="geometry" />
        </mxCell>
        <mxCell id="nA8GNcOrHR8l3FSKZK5o-7" style="edgeStyle=orthogonalEdgeStyle;rounded=0;orthogonalLoop=1;jettySize=auto;html=1;entryX=1;entryY=0.5;entryDx=0;entryDy=0;" parent="1" source="nA8GNcOrHR8l3FSKZK5o-4" target="nA8GNcOrHR8l3FSKZK5o-6" edge="1">
          <mxGeometry relative="1" as="geometry" />
        </mxCell>
        <mxCell id="nA8GNcOrHR8l3FSKZK5o-9" value="1" style="edgeLabel;html=1;align=center;verticalAlign=middle;resizable=0;points=[];" parent="nA8GNcOrHR8l3FSKZK5o-7" vertex="1" connectable="0">
          <mxGeometry x="-0.1385" y="-3" relative="1" as="geometry">
            <mxPoint as="offset" />
          </mxGeometry>
        </mxCell>
        <mxCell id="nA8GNcOrHR8l3FSKZK5o-11" style="edgeStyle=orthogonalEdgeStyle;rounded=0;orthogonalLoop=1;jettySize=auto;html=1;exitX=0.5;exitY=1;exitDx=0;exitDy=0;entryX=0.5;entryY=0;entryDx=0;entryDy=0;" parent="1" source="nA8GNcOrHR8l3FSKZK5o-4" target="nA8GNcOrHR8l3FSKZK5o-10" edge="1">
          <mxGeometry relative="1" as="geometry" />
        </mxCell>
        <mxCell id="nA8GNcOrHR8l3FSKZK5o-12" value="0" style="edgeLabel;html=1;align=center;verticalAlign=middle;resizable=0;points=[];" parent="nA8GNcOrHR8l3FSKZK5o-11" vertex="1" connectable="0">
          <mxGeometry x="-0.2667" y="5" relative="1" as="geometry">
            <mxPoint as="offset" />
          </mxGeometry>
        </mxCell>
        <mxCell id="nA8GNcOrHR8l3FSKZK5o-4" value="x1" style="rhombus;whiteSpace=wrap;html=1;" parent="1" vertex="1">
          <mxGeometry x="205" y="260" width="80" height="80" as="geometry" />
        </mxCell>
        <mxCell id="nA8GNcOrHR8l3FSKZK5o-13" style="edgeStyle=orthogonalEdgeStyle;rounded=0;orthogonalLoop=1;jettySize=auto;html=1;" parent="1" source="nA8GNcOrHR8l3FSKZK5o-6" edge="1">
          <mxGeometry relative="1" as="geometry">
            <mxPoint x="250" y="240" as="targetPoint" />
            <Array as="points">
              <mxPoint x="80" y="240" />
              <mxPoint x="220" y="240" />
            </Array>
          </mxGeometry>
        </mxCell>
        <mxCell id="nA8GNcOrHR8l3FSKZK5o-6" value="y4, y5" style="rounded=0;whiteSpace=wrap;html=1;" parent="1" vertex="1">
          <mxGeometry x="20" y="270" width="120" height="60" as="geometry" />
        </mxCell>
        <mxCell id="nA8GNcOrHR8l3FSKZK5o-15" style="edgeStyle=orthogonalEdgeStyle;rounded=0;orthogonalLoop=1;jettySize=auto;html=1;entryX=0.5;entryY=0;entryDx=0;entryDy=0;" parent="1" source="nA8GNcOrHR8l3FSKZK5o-10" target="nA8GNcOrHR8l3FSKZK5o-14" edge="1">
          <mxGeometry relative="1" as="geometry" />
        </mxCell>
        <mxCell id="nA8GNcOrHR8l3FSKZK5o-10" value="y6, y7, y8, y9" style="rounded=0;whiteSpace=wrap;html=1;" parent="1" vertex="1">
          <mxGeometry x="185" y="370" width="120" height="60" as="geometry" />
        </mxCell>
        <mxCell id="nA8GNcOrHR8l3FSKZK5o-17" style="edgeStyle=orthogonalEdgeStyle;rounded=0;orthogonalLoop=1;jettySize=auto;html=1;entryX=0;entryY=0.5;entryDx=0;entryDy=0;" parent="1" source="nA8GNcOrHR8l3FSKZK5o-14" target="nA8GNcOrHR8l3FSKZK5o-16" edge="1">
          <mxGeometry relative="1" as="geometry" />
        </mxCell>
        <mxCell id="nA8GNcOrHR8l3FSKZK5o-18" value="1" style="edgeLabel;html=1;align=center;verticalAlign=middle;resizable=0;points=[];" parent="nA8GNcOrHR8l3FSKZK5o-17" vertex="1" connectable="0">
          <mxGeometry x="-0.1273" y="2" relative="1" as="geometry">
            <mxPoint as="offset" />
          </mxGeometry>
        </mxCell>
        <mxCell id="nA8GNcOrHR8l3FSKZK5o-19" style="edgeStyle=orthogonalEdgeStyle;rounded=0;orthogonalLoop=1;jettySize=auto;html=1;" parent="1" source="nA8GNcOrHR8l3FSKZK5o-14" edge="1">
          <mxGeometry relative="1" as="geometry">
            <mxPoint x="245" y="610" as="targetPoint" />
          </mxGeometry>
        </mxCell>
        <mxCell id="nA8GNcOrHR8l3FSKZK5o-20" value="0" style="edgeLabel;html=1;align=center;verticalAlign=middle;resizable=0;points=[];" parent="nA8GNcOrHR8l3FSKZK5o-19" vertex="1" connectable="0">
          <mxGeometry x="-0.2067" y="5" relative="1" as="geometry">
            <mxPoint as="offset" />
          </mxGeometry>
        </mxCell>
        <mxCell id="nA8GNcOrHR8l3FSKZK5o-14" value="x2" style="rhombus;whiteSpace=wrap;html=1;" parent="1" vertex="1">
          <mxGeometry x="205" y="470" width="80" height="80" as="geometry" />
        </mxCell>
        <mxCell id="nA8GNcOrHR8l3FSKZK5o-23" style="edgeStyle=orthogonalEdgeStyle;rounded=0;orthogonalLoop=1;jettySize=auto;html=1;" parent="1" source="nA8GNcOrHR8l3FSKZK5o-16" edge="1">
          <mxGeometry relative="1" as="geometry">
            <mxPoint x="490" y="510" as="targetPoint" />
          </mxGeometry>
        </mxCell>
        <mxCell id="nA8GNcOrHR8l3FSKZK5o-24" value="0" style="edgeLabel;html=1;align=center;verticalAlign=middle;resizable=0;points=[];" parent="nA8GNcOrHR8l3FSKZK5o-23" vertex="1" connectable="0">
          <mxGeometry x="-0.149" y="7" relative="1" as="geometry">
            <mxPoint as="offset" />
          </mxGeometry>
        </mxCell>
        <mxCell id="nA8GNcOrHR8l3FSKZK5o-27" style="edgeStyle=orthogonalEdgeStyle;rounded=0;orthogonalLoop=1;jettySize=auto;html=1;" parent="1" source="nA8GNcOrHR8l3FSKZK5o-16" edge="1">
          <mxGeometry relative="1" as="geometry">
            <mxPoint x="240" y="590" as="targetPoint" />
            <Array as="points">
              <mxPoint x="380" y="590" />
              <mxPoint x="250" y="590" />
            </Array>
          </mxGeometry>
        </mxCell>
        <mxCell id="LDW5ZXdG8AZrNNYE6y6R-13" value="1" style="edgeLabel;html=1;align=center;verticalAlign=middle;resizable=0;points=[];" vertex="1" connectable="0" parent="nA8GNcOrHR8l3FSKZK5o-27">
          <mxGeometry x="0.0562" y="-4" relative="1" as="geometry">
            <mxPoint x="-5" as="offset" />
          </mxGeometry>
        </mxCell>
        <mxCell id="nA8GNcOrHR8l3FSKZK5o-16" value="x3" style="rhombus;whiteSpace=wrap;html=1;" parent="1" vertex="1">
          <mxGeometry x="340" y="470" width="80" height="80" as="geometry" />
        </mxCell>
        <mxCell id="nA8GNcOrHR8l3FSKZK5o-32" style="edgeStyle=orthogonalEdgeStyle;rounded=0;orthogonalLoop=1;jettySize=auto;html=1;entryX=0.5;entryY=0;entryDx=0;entryDy=0;" parent="1" source="nA8GNcOrHR8l3FSKZK5o-28" target="nA8GNcOrHR8l3FSKZK5o-31" edge="1">
          <mxGeometry relative="1" as="geometry" />
        </mxCell>
        <mxCell id="nA8GNcOrHR8l3FSKZK5o-28" value="y12, y3" style="rounded=0;whiteSpace=wrap;html=1;" parent="1" vertex="1">
          <mxGeometry x="185" y="610" width="120" height="60" as="geometry" />
        </mxCell>
        <mxCell id="nA8GNcOrHR8l3FSKZK5o-30" style="edgeStyle=orthogonalEdgeStyle;rounded=0;orthogonalLoop=1;jettySize=auto;html=1;" parent="1" source="nA8GNcOrHR8l3FSKZK5o-29" edge="1">
          <mxGeometry relative="1" as="geometry">
            <mxPoint x="240" y="450" as="targetPoint" />
            <Array as="points">
              <mxPoint x="550" y="450" />
              <mxPoint x="251" y="450" />
            </Array>
          </mxGeometry>
        </mxCell>
        <mxCell id="nA8GNcOrHR8l3FSKZK5o-29" value="y10, y11" style="rounded=0;whiteSpace=wrap;html=1;" parent="1" vertex="1">
          <mxGeometry x="490" y="480" width="120" height="60" as="geometry" />
        </mxCell>
        <mxCell id="nA8GNcOrHR8l3FSKZK5o-33" style="edgeStyle=orthogonalEdgeStyle;rounded=0;orthogonalLoop=1;jettySize=auto;html=1;" parent="1" source="nA8GNcOrHR8l3FSKZK5o-31" edge="1">
          <mxGeometry relative="1" as="geometry">
            <mxPoint x="130" y="740" as="targetPoint" />
          </mxGeometry>
        </mxCell>
        <mxCell id="nA8GNcOrHR8l3FSKZK5o-34" value="1" style="edgeLabel;html=1;align=center;verticalAlign=middle;resizable=0;points=[];" parent="nA8GNcOrHR8l3FSKZK5o-33" vertex="1" connectable="0">
          <mxGeometry x="-0.1148" y="-3" relative="1" as="geometry">
            <mxPoint as="offset" />
          </mxGeometry>
        </mxCell>
        <mxCell id="nA8GNcOrHR8l3FSKZK5o-35" style="edgeStyle=orthogonalEdgeStyle;rounded=0;orthogonalLoop=1;jettySize=auto;html=1;" parent="1" source="nA8GNcOrHR8l3FSKZK5o-31" edge="1">
          <mxGeometry relative="1" as="geometry">
            <mxPoint x="245" y="820" as="targetPoint" />
          </mxGeometry>
        </mxCell>
        <mxCell id="nA8GNcOrHR8l3FSKZK5o-36" value="0" style="edgeLabel;html=1;align=center;verticalAlign=middle;resizable=0;points=[];" parent="nA8GNcOrHR8l3FSKZK5o-35" vertex="1" connectable="0">
          <mxGeometry x="-0.2681" y="5" relative="1" as="geometry">
            <mxPoint as="offset" />
          </mxGeometry>
        </mxCell>
        <mxCell id="nA8GNcOrHR8l3FSKZK5o-31" value="x4" style="rhombus;whiteSpace=wrap;html=1;" parent="1" vertex="1">
          <mxGeometry x="205" y="700" width="80" height="80" as="geometry" />
        </mxCell>
        <mxCell id="nA8GNcOrHR8l3FSKZK5o-113" style="edgeStyle=orthogonalEdgeStyle;rounded=0;orthogonalLoop=1;jettySize=auto;html=1;" parent="1" source="nA8GNcOrHR8l3FSKZK5o-37" edge="1">
          <mxGeometry relative="1" as="geometry">
            <mxPoint x="250" y="690" as="targetPoint" />
            <Array as="points">
              <mxPoint x="70" y="690" />
              <mxPoint x="240" y="690" />
            </Array>
          </mxGeometry>
        </mxCell>
        <mxCell id="nA8GNcOrHR8l3FSKZK5o-37" value="y13" style="rounded=0;whiteSpace=wrap;html=1;" parent="1" vertex="1">
          <mxGeometry x="10" y="710" width="120" height="60" as="geometry" />
        </mxCell>
        <mxCell id="nA8GNcOrHR8l3FSKZK5o-40" style="edgeStyle=orthogonalEdgeStyle;rounded=0;orthogonalLoop=1;jettySize=auto;html=1;" parent="1" source="nA8GNcOrHR8l3FSKZK5o-38" target="nA8GNcOrHR8l3FSKZK5o-39" edge="1">
          <mxGeometry relative="1" as="geometry" />
        </mxCell>
        <mxCell id="nA8GNcOrHR8l3FSKZK5o-38" value="y6" style="rounded=0;whiteSpace=wrap;html=1;" parent="1" vertex="1">
          <mxGeometry x="185" y="820" width="120" height="60" as="geometry" />
        </mxCell>
        <mxCell id="nA8GNcOrHR8l3FSKZK5o-39" value="1" style="ellipse;whiteSpace=wrap;html=1;aspect=fixed;" parent="1" vertex="1">
          <mxGeometry x="205" y="910" width="80" height="80" as="geometry" />
        </mxCell>
        <mxCell id="nA8GNcOrHR8l3FSKZK5o-43" style="edgeStyle=orthogonalEdgeStyle;rounded=0;orthogonalLoop=1;jettySize=auto;html=1;entryX=0.5;entryY=0;entryDx=0;entryDy=0;" parent="1" source="nA8GNcOrHR8l3FSKZK5o-41" target="nA8GNcOrHR8l3FSKZK5o-42" edge="1">
          <mxGeometry relative="1" as="geometry" />
        </mxCell>
        <mxCell id="nA8GNcOrHR8l3FSKZK5o-41" value="1" style="ellipse;whiteSpace=wrap;html=1;aspect=fixed;" parent="1" vertex="1">
          <mxGeometry x="880" y="20" width="80" height="80" as="geometry" />
        </mxCell>
        <mxCell id="nA8GNcOrHR8l3FSKZK5o-44" style="edgeStyle=orthogonalEdgeStyle;rounded=0;orthogonalLoop=1;jettySize=auto;html=1;" parent="1" source="nA8GNcOrHR8l3FSKZK5o-42" edge="1">
          <mxGeometry relative="1" as="geometry">
            <mxPoint x="800" y="170" as="targetPoint" />
          </mxGeometry>
        </mxCell>
        <mxCell id="nA8GNcOrHR8l3FSKZK5o-48" style="edgeStyle=orthogonalEdgeStyle;rounded=0;orthogonalLoop=1;jettySize=auto;html=1;" parent="1" source="nA8GNcOrHR8l3FSKZK5o-42" target="nA8GNcOrHR8l3FSKZK5o-47" edge="1">
          <mxGeometry relative="1" as="geometry" />
        </mxCell>
        <mxCell id="nA8GNcOrHR8l3FSKZK5o-53" value="0" style="edgeLabel;html=1;align=center;verticalAlign=middle;resizable=0;points=[];" parent="nA8GNcOrHR8l3FSKZK5o-48" vertex="1" connectable="0">
          <mxGeometry x="-0.6743" y="4" relative="1" as="geometry">
            <mxPoint as="offset" />
          </mxGeometry>
        </mxCell>
        <mxCell id="nA8GNcOrHR8l3FSKZK5o-42" value="x5" style="rhombus;whiteSpace=wrap;html=1;" parent="1" vertex="1">
          <mxGeometry x="880" y="130" width="80" height="80" as="geometry" />
        </mxCell>
        <mxCell id="nA8GNcOrHR8l3FSKZK5o-90" style="edgeStyle=orthogonalEdgeStyle;rounded=0;orthogonalLoop=1;jettySize=auto;html=1;entryX=0.5;entryY=0;entryDx=0;entryDy=0;" parent="1" source="nA8GNcOrHR8l3FSKZK5o-45" target="nA8GNcOrHR8l3FSKZK5o-89" edge="1">
          <mxGeometry relative="1" as="geometry" />
        </mxCell>
        <mxCell id="nA8GNcOrHR8l3FSKZK5o-45" value="y8, y14" style="rounded=0;whiteSpace=wrap;html=1;" parent="1" vertex="1">
          <mxGeometry x="680" y="140" width="120" height="60" as="geometry" />
        </mxCell>
        <mxCell id="nA8GNcOrHR8l3FSKZK5o-55" style="edgeStyle=orthogonalEdgeStyle;rounded=0;orthogonalLoop=1;jettySize=auto;html=1;entryX=0.5;entryY=0;entryDx=0;entryDy=0;" parent="1" source="nA8GNcOrHR8l3FSKZK5o-47" target="nA8GNcOrHR8l3FSKZK5o-54" edge="1">
          <mxGeometry relative="1" as="geometry" />
        </mxCell>
        <mxCell id="nA8GNcOrHR8l3FSKZK5o-47" value="y15, y16, y17, y18, y19, y20, y21, y22, y23, y24, y9, y25" style="rounded=0;whiteSpace=wrap;html=1;" parent="1" vertex="1">
          <mxGeometry x="860" y="240" width="120" height="60" as="geometry" />
        </mxCell>
        <mxCell id="nA8GNcOrHR8l3FSKZK5o-52" value="1" style="text;html=1;align=center;verticalAlign=middle;resizable=0;points=[];autosize=1;strokeColor=none;fillColor=none;" parent="1" vertex="1">
          <mxGeometry x="825" y="158" width="30" height="30" as="geometry" />
        </mxCell>
        <mxCell id="nA8GNcOrHR8l3FSKZK5o-58" style="edgeStyle=orthogonalEdgeStyle;rounded=0;orthogonalLoop=1;jettySize=auto;html=1;entryX=0.5;entryY=0;entryDx=0;entryDy=0;" parent="1" source="nA8GNcOrHR8l3FSKZK5o-54" target="nA8GNcOrHR8l3FSKZK5o-56" edge="1">
          <mxGeometry relative="1" as="geometry" />
        </mxCell>
        <mxCell id="nA8GNcOrHR8l3FSKZK5o-62" value="1" style="edgeLabel;html=1;align=center;verticalAlign=middle;resizable=0;points=[];" parent="nA8GNcOrHR8l3FSKZK5o-58" vertex="1" connectable="0">
          <mxGeometry x="-0.1405" y="4" relative="1" as="geometry">
            <mxPoint as="offset" />
          </mxGeometry>
        </mxCell>
        <mxCell id="nA8GNcOrHR8l3FSKZK5o-82" style="edgeStyle=orthogonalEdgeStyle;rounded=0;orthogonalLoop=1;jettySize=auto;html=1;entryX=0;entryY=0.5;entryDx=0;entryDy=0;" parent="1" source="nA8GNcOrHR8l3FSKZK5o-54" target="nA8GNcOrHR8l3FSKZK5o-91" edge="1">
          <mxGeometry relative="1" as="geometry">
            <mxPoint x="1190" y="400" as="targetPoint" />
          </mxGeometry>
        </mxCell>
        <mxCell id="nA8GNcOrHR8l3FSKZK5o-85" value="0" style="edgeLabel;html=1;align=center;verticalAlign=middle;resizable=0;points=[];" parent="nA8GNcOrHR8l3FSKZK5o-82" vertex="1" connectable="0">
          <mxGeometry x="-0.1425" y="3" relative="1" as="geometry">
            <mxPoint as="offset" />
          </mxGeometry>
        </mxCell>
        <mxCell id="nA8GNcOrHR8l3FSKZK5o-54" value="x6" style="rhombus;whiteSpace=wrap;html=1;" parent="1" vertex="1">
          <mxGeometry x="880" y="360" width="80" height="80" as="geometry" />
        </mxCell>
        <mxCell id="nA8GNcOrHR8l3FSKZK5o-59" style="edgeStyle=orthogonalEdgeStyle;rounded=0;orthogonalLoop=1;jettySize=auto;html=1;" parent="1" source="nA8GNcOrHR8l3FSKZK5o-56" edge="1">
          <mxGeometry relative="1" as="geometry">
            <mxPoint x="1020" y="520" as="targetPoint" />
          </mxGeometry>
        </mxCell>
        <mxCell id="nA8GNcOrHR8l3FSKZK5o-63" style="edgeStyle=orthogonalEdgeStyle;rounded=0;orthogonalLoop=1;jettySize=auto;html=1;entryX=0.5;entryY=0;entryDx=0;entryDy=0;" parent="1" source="nA8GNcOrHR8l3FSKZK5o-56" target="nA8GNcOrHR8l3FSKZK5o-66" edge="1">
          <mxGeometry relative="1" as="geometry">
            <mxPoint x="920" y="610" as="targetPoint" />
          </mxGeometry>
        </mxCell>
        <mxCell id="nA8GNcOrHR8l3FSKZK5o-64" value="0" style="edgeLabel;html=1;align=center;verticalAlign=middle;resizable=0;points=[];" parent="nA8GNcOrHR8l3FSKZK5o-63" vertex="1" connectable="0">
          <mxGeometry x="-0.3567" y="4" relative="1" as="geometry">
            <mxPoint as="offset" />
          </mxGeometry>
        </mxCell>
        <mxCell id="nA8GNcOrHR8l3FSKZK5o-56" value="x7" style="rhombus;whiteSpace=wrap;html=1;" parent="1" vertex="1">
          <mxGeometry x="880" y="480" width="80" height="80" as="geometry" />
        </mxCell>
        <mxCell id="nA8GNcOrHR8l3FSKZK5o-67" style="edgeStyle=orthogonalEdgeStyle;rounded=0;orthogonalLoop=1;jettySize=auto;html=1;" parent="1" source="nA8GNcOrHR8l3FSKZK5o-60" edge="1">
          <mxGeometry relative="1" as="geometry">
            <mxPoint x="920" y="590" as="targetPoint" />
            <Array as="points">
              <mxPoint x="1080" y="590" />
              <mxPoint x="920" y="590" />
            </Array>
          </mxGeometry>
        </mxCell>
        <mxCell id="nA8GNcOrHR8l3FSKZK5o-60" value="y26" style="rounded=0;whiteSpace=wrap;html=1;" parent="1" vertex="1">
          <mxGeometry x="1020" y="490" width="120" height="60" as="geometry" />
        </mxCell>
        <mxCell id="nA8GNcOrHR8l3FSKZK5o-61" value="1" style="text;html=1;align=center;verticalAlign=middle;resizable=0;points=[];autosize=1;strokeColor=none;fillColor=none;" parent="1" vertex="1">
          <mxGeometry x="975" y="498" width="30" height="30" as="geometry" />
        </mxCell>
        <mxCell id="nA8GNcOrHR8l3FSKZK5o-69" style="edgeStyle=orthogonalEdgeStyle;rounded=0;orthogonalLoop=1;jettySize=auto;html=1;entryX=0;entryY=0.5;entryDx=0;entryDy=0;" parent="1" source="nA8GNcOrHR8l3FSKZK5o-66" target="nA8GNcOrHR8l3FSKZK5o-68" edge="1">
          <mxGeometry relative="1" as="geometry" />
        </mxCell>
        <mxCell id="nA8GNcOrHR8l3FSKZK5o-72" value="1" style="edgeLabel;html=1;align=center;verticalAlign=middle;resizable=0;points=[];" parent="nA8GNcOrHR8l3FSKZK5o-69" vertex="1" connectable="0">
          <mxGeometry x="-0.0778" y="3" relative="1" as="geometry">
            <mxPoint as="offset" />
          </mxGeometry>
        </mxCell>
        <mxCell id="nA8GNcOrHR8l3FSKZK5o-70" style="edgeStyle=orthogonalEdgeStyle;rounded=0;orthogonalLoop=1;jettySize=auto;html=1;" parent="1" source="nA8GNcOrHR8l3FSKZK5o-66" edge="1">
          <mxGeometry relative="1" as="geometry">
            <mxPoint x="920" y="760" as="targetPoint" />
          </mxGeometry>
        </mxCell>
        <mxCell id="nA8GNcOrHR8l3FSKZK5o-73" value="0" style="edgeLabel;html=1;align=center;verticalAlign=middle;resizable=0;points=[];" parent="nA8GNcOrHR8l3FSKZK5o-70" vertex="1" connectable="0">
          <mxGeometry x="-0.5044" y="3" relative="1" as="geometry">
            <mxPoint as="offset" />
          </mxGeometry>
        </mxCell>
        <mxCell id="nA8GNcOrHR8l3FSKZK5o-66" value="x8" style="rhombus;whiteSpace=wrap;html=1;" parent="1" vertex="1">
          <mxGeometry x="880" y="620" width="80" height="80" as="geometry" />
        </mxCell>
        <mxCell id="nA8GNcOrHR8l3FSKZK5o-71" style="edgeStyle=orthogonalEdgeStyle;rounded=0;orthogonalLoop=1;jettySize=auto;html=1;" parent="1" source="nA8GNcOrHR8l3FSKZK5o-68" edge="1">
          <mxGeometry relative="1" as="geometry">
            <mxPoint x="920" y="740" as="targetPoint" />
            <Array as="points">
              <mxPoint x="1080" y="740" />
            </Array>
          </mxGeometry>
        </mxCell>
        <mxCell id="nA8GNcOrHR8l3FSKZK5o-68" value="y27" style="rounded=0;whiteSpace=wrap;html=1;" parent="1" vertex="1">
          <mxGeometry x="1020" y="630" width="120" height="60" as="geometry" />
        </mxCell>
        <mxCell id="nA8GNcOrHR8l3FSKZK5o-76" style="edgeStyle=orthogonalEdgeStyle;rounded=0;orthogonalLoop=1;jettySize=auto;html=1;entryX=0;entryY=0.5;entryDx=0;entryDy=0;" parent="1" source="nA8GNcOrHR8l3FSKZK5o-74" target="nA8GNcOrHR8l3FSKZK5o-75" edge="1">
          <mxGeometry relative="1" as="geometry" />
        </mxCell>
        <mxCell id="nA8GNcOrHR8l3FSKZK5o-77" value="1" style="edgeLabel;html=1;align=center;verticalAlign=middle;resizable=0;points=[];" parent="nA8GNcOrHR8l3FSKZK5o-76" vertex="1" connectable="0">
          <mxGeometry x="-0.1133" y="2" relative="1" as="geometry">
            <mxPoint as="offset" />
          </mxGeometry>
        </mxCell>
        <mxCell id="nA8GNcOrHR8l3FSKZK5o-78" style="edgeStyle=orthogonalEdgeStyle;rounded=0;orthogonalLoop=1;jettySize=auto;html=1;" parent="1" source="nA8GNcOrHR8l3FSKZK5o-74" edge="1">
          <mxGeometry relative="1" as="geometry">
            <mxPoint x="920" y="910" as="targetPoint" />
          </mxGeometry>
        </mxCell>
        <mxCell id="nA8GNcOrHR8l3FSKZK5o-79" value="0" style="edgeLabel;html=1;align=center;verticalAlign=middle;resizable=0;points=[];" parent="nA8GNcOrHR8l3FSKZK5o-78" vertex="1" connectable="0">
          <mxGeometry x="-0.1991" y="-3" relative="1" as="geometry">
            <mxPoint as="offset" />
          </mxGeometry>
        </mxCell>
        <mxCell id="nA8GNcOrHR8l3FSKZK5o-74" value="x9" style="rhombus;whiteSpace=wrap;html=1;" parent="1" vertex="1">
          <mxGeometry x="880" y="760" width="80" height="80" as="geometry" />
        </mxCell>
        <mxCell id="nA8GNcOrHR8l3FSKZK5o-84" style="edgeStyle=orthogonalEdgeStyle;rounded=0;orthogonalLoop=1;jettySize=auto;html=1;entryX=0.5;entryY=0;entryDx=0;entryDy=0;" parent="1" source="nA8GNcOrHR8l3FSKZK5o-75" target="nA8GNcOrHR8l3FSKZK5o-83" edge="1">
          <mxGeometry relative="1" as="geometry" />
        </mxCell>
        <mxCell id="nA8GNcOrHR8l3FSKZK5o-75" value="y28, y29, y30, y31, y32, y33, y34" style="rounded=0;whiteSpace=wrap;html=1;" parent="1" vertex="1">
          <mxGeometry x="1020" y="770" width="120" height="60" as="geometry" />
        </mxCell>
        <mxCell id="nA8GNcOrHR8l3FSKZK5o-81" style="edgeStyle=orthogonalEdgeStyle;rounded=0;orthogonalLoop=1;jettySize=auto;html=1;" parent="1" source="nA8GNcOrHR8l3FSKZK5o-80" edge="1">
          <mxGeometry relative="1" as="geometry">
            <mxPoint x="920" y="330" as="targetPoint" />
            <Array as="points">
              <mxPoint x="840" y="940" />
              <mxPoint x="840" y="330" />
            </Array>
          </mxGeometry>
        </mxCell>
        <mxCell id="nA8GNcOrHR8l3FSKZK5o-80" value="y35, y36, y11" style="rounded=0;whiteSpace=wrap;html=1;" parent="1" vertex="1">
          <mxGeometry x="860" y="910" width="120" height="60" as="geometry" />
        </mxCell>
        <mxCell id="nA8GNcOrHR8l3FSKZK5o-83" value="3" style="ellipse;whiteSpace=wrap;html=1;aspect=fixed;" parent="1" vertex="1">
          <mxGeometry x="1040" y="870" width="80" height="80" as="geometry" />
        </mxCell>
        <mxCell id="nA8GNcOrHR8l3FSKZK5o-89" value="2" style="ellipse;whiteSpace=wrap;html=1;aspect=fixed;" parent="1" vertex="1">
          <mxGeometry x="700" y="220" width="80" height="80" as="geometry" />
        </mxCell>
        <mxCell id="nA8GNcOrHR8l3FSKZK5o-93" style="edgeStyle=orthogonalEdgeStyle;rounded=0;orthogonalLoop=1;jettySize=auto;html=1;entryX=0.5;entryY=0;entryDx=0;entryDy=0;" parent="1" source="nA8GNcOrHR8l3FSKZK5o-91" target="nA8GNcOrHR8l3FSKZK5o-92" edge="1">
          <mxGeometry relative="1" as="geometry" />
        </mxCell>
        <mxCell id="nA8GNcOrHR8l3FSKZK5o-91" value="y12, y3" style="rounded=0;whiteSpace=wrap;html=1;" parent="1" vertex="1">
          <mxGeometry x="1220" y="370" width="120" height="60" as="geometry" />
        </mxCell>
        <mxCell id="nA8GNcOrHR8l3FSKZK5o-94" style="edgeStyle=orthogonalEdgeStyle;rounded=0;orthogonalLoop=1;jettySize=auto;html=1;" parent="1" source="nA8GNcOrHR8l3FSKZK5o-92" edge="1">
          <mxGeometry relative="1" as="geometry">
            <mxPoint x="1380" y="500.0000000000001" as="targetPoint" />
          </mxGeometry>
        </mxCell>
        <mxCell id="nA8GNcOrHR8l3FSKZK5o-96" value="1" style="edgeLabel;html=1;align=center;verticalAlign=middle;resizable=0;points=[];" parent="nA8GNcOrHR8l3FSKZK5o-94" vertex="1" connectable="0">
          <mxGeometry x="-0.1015" y="2" relative="1" as="geometry">
            <mxPoint as="offset" />
          </mxGeometry>
        </mxCell>
        <mxCell id="nA8GNcOrHR8l3FSKZK5o-97" style="edgeStyle=orthogonalEdgeStyle;rounded=0;orthogonalLoop=1;jettySize=auto;html=1;" parent="1" source="nA8GNcOrHR8l3FSKZK5o-92" edge="1">
          <mxGeometry relative="1" as="geometry">
            <mxPoint x="1280" y="600" as="targetPoint" />
          </mxGeometry>
        </mxCell>
        <mxCell id="nA8GNcOrHR8l3FSKZK5o-99" value="0" style="edgeLabel;html=1;align=center;verticalAlign=middle;resizable=0;points=[];" parent="nA8GNcOrHR8l3FSKZK5o-97" vertex="1" connectable="0">
          <mxGeometry x="-0.2634" y="3" relative="1" as="geometry">
            <mxPoint as="offset" />
          </mxGeometry>
        </mxCell>
        <mxCell id="nA8GNcOrHR8l3FSKZK5o-92" value="x10" style="rhombus;whiteSpace=wrap;html=1;" parent="1" vertex="1">
          <mxGeometry x="1240" y="460" width="80" height="80" as="geometry" />
        </mxCell>
        <mxCell id="nA8GNcOrHR8l3FSKZK5o-112" style="edgeStyle=orthogonalEdgeStyle;rounded=0;orthogonalLoop=1;jettySize=auto;html=1;" parent="1" source="nA8GNcOrHR8l3FSKZK5o-95" edge="1">
          <mxGeometry relative="1" as="geometry">
            <mxPoint x="1280.0000000000002" y="440" as="targetPoint" />
            <Array as="points">
              <mxPoint x="1440" y="440" />
            </Array>
          </mxGeometry>
        </mxCell>
        <mxCell id="nA8GNcOrHR8l3FSKZK5o-95" value="y13" style="rounded=0;whiteSpace=wrap;html=1;" parent="1" vertex="1">
          <mxGeometry x="1380" y="470" width="120" height="60" as="geometry" />
        </mxCell>
        <mxCell id="nA8GNcOrHR8l3FSKZK5o-101" style="edgeStyle=orthogonalEdgeStyle;rounded=0;orthogonalLoop=1;jettySize=auto;html=1;" parent="1" source="nA8GNcOrHR8l3FSKZK5o-100" edge="1">
          <mxGeometry relative="1" as="geometry">
            <mxPoint x="1170.0000000000002" y="399.9999999999999" as="targetPoint" />
          </mxGeometry>
        </mxCell>
        <mxCell id="nA8GNcOrHR8l3FSKZK5o-100" value="3" style="ellipse;whiteSpace=wrap;html=1;aspect=fixed;" parent="1" vertex="1">
          <mxGeometry x="1130" y="250" width="80" height="80" as="geometry" />
        </mxCell>
        <mxCell id="nA8GNcOrHR8l3FSKZK5o-106" style="edgeStyle=orthogonalEdgeStyle;rounded=0;orthogonalLoop=1;jettySize=auto;html=1;entryX=0.5;entryY=0;entryDx=0;entryDy=0;" parent="1" source="nA8GNcOrHR8l3FSKZK5o-102" target="nA8GNcOrHR8l3FSKZK5o-105" edge="1">
          <mxGeometry relative="1" as="geometry" />
        </mxCell>
        <mxCell id="nA8GNcOrHR8l3FSKZK5o-102" value="y6" style="rounded=0;whiteSpace=wrap;html=1;" parent="1" vertex="1">
          <mxGeometry x="1220" y="600" width="120" height="60" as="geometry" />
        </mxCell>
        <mxCell id="nA8GNcOrHR8l3FSKZK5o-107" style="edgeStyle=orthogonalEdgeStyle;rounded=0;orthogonalLoop=1;jettySize=auto;html=1;" parent="1" source="nA8GNcOrHR8l3FSKZK5o-105" edge="1">
          <mxGeometry relative="1" as="geometry">
            <mxPoint x="1390" y="740" as="targetPoint" />
          </mxGeometry>
        </mxCell>
        <mxCell id="nA8GNcOrHR8l3FSKZK5o-108" value="1" style="edgeLabel;html=1;align=center;verticalAlign=middle;resizable=0;points=[];" parent="nA8GNcOrHR8l3FSKZK5o-107" vertex="1" connectable="0">
          <mxGeometry x="-0.1348" y="2" relative="1" as="geometry">
            <mxPoint as="offset" />
          </mxGeometry>
        </mxCell>
        <mxCell id="nA8GNcOrHR8l3FSKZK5o-109" style="edgeStyle=orthogonalEdgeStyle;rounded=0;orthogonalLoop=1;jettySize=auto;html=1;" parent="1" source="nA8GNcOrHR8l3FSKZK5o-105" edge="1">
          <mxGeometry relative="1" as="geometry">
            <mxPoint x="1280.0000000000002" y="840" as="targetPoint" />
          </mxGeometry>
        </mxCell>
        <mxCell id="nA8GNcOrHR8l3FSKZK5o-110" value="0" style="edgeLabel;html=1;align=center;verticalAlign=middle;resizable=0;points=[];" parent="nA8GNcOrHR8l3FSKZK5o-109" vertex="1" connectable="0">
          <mxGeometry x="-0.2122" y="3" relative="1" as="geometry">
            <mxPoint as="offset" />
          </mxGeometry>
        </mxCell>
        <mxCell id="nA8GNcOrHR8l3FSKZK5o-105" value="x11" style="rhombus;whiteSpace=wrap;html=1;" parent="1" vertex="1">
          <mxGeometry x="1240" y="700" width="80" height="80" as="geometry" />
        </mxCell>
        <mxCell id="nA8GNcOrHR8l3FSKZK5o-114" style="edgeStyle=orthogonalEdgeStyle;rounded=0;orthogonalLoop=1;jettySize=auto;html=1;" parent="1" source="nA8GNcOrHR8l3FSKZK5o-111" edge="1">
          <mxGeometry relative="1" as="geometry">
            <mxPoint x="1280" y="680" as="targetPoint" />
            <Array as="points">
              <mxPoint x="1450" y="680" />
            </Array>
          </mxGeometry>
        </mxCell>
        <mxCell id="nA8GNcOrHR8l3FSKZK5o-111" value="y10" style="rounded=0;whiteSpace=wrap;html=1;" parent="1" vertex="1">
          <mxGeometry x="1390" y="710" width="120" height="60" as="geometry" />
        </mxCell>
        <mxCell id="nA8GNcOrHR8l3FSKZK5o-116" style="edgeStyle=orthogonalEdgeStyle;rounded=0;orthogonalLoop=1;jettySize=auto;html=1;" parent="1" source="nA8GNcOrHR8l3FSKZK5o-115" edge="1">
          <mxGeometry relative="1" as="geometry">
            <mxPoint x="1280" y="970" as="targetPoint" />
          </mxGeometry>
        </mxCell>
        <mxCell id="nA8GNcOrHR8l3FSKZK5o-115" value="y7" style="rounded=0;whiteSpace=wrap;html=1;" parent="1" vertex="1">
          <mxGeometry x="1220" y="840" width="120" height="60" as="geometry" />
        </mxCell>
        <mxCell id="nA8GNcOrHR8l3FSKZK5o-117" value="К" style="ellipse;whiteSpace=wrap;html=1;" parent="1" vertex="1">
          <mxGeometry x="1220" y="970" width="120" height="80" as="geometry" />
        </mxCell>
        <mxCell id="nA8GNcOrHR8l3FSKZK5o-119" style="edgeStyle=orthogonalEdgeStyle;rounded=0;orthogonalLoop=1;jettySize=auto;html=1;" parent="1" source="nA8GNcOrHR8l3FSKZK5o-118" edge="1">
          <mxGeometry relative="1" as="geometry">
            <mxPoint x="1280" y="930" as="targetPoint" />
          </mxGeometry>
        </mxCell>
        <mxCell id="nA8GNcOrHR8l3FSKZK5o-118" value="2" style="ellipse;whiteSpace=wrap;html=1;aspect=fixed;" parent="1" vertex="1">
          <mxGeometry x="1380" y="890" width="80" height="80" as="geometry" />
        </mxCell>
        <mxCell id="LDW5ZXdG8AZrNNYE6y6R-1" value="S0" style="text;html=1;align=center;verticalAlign=middle;whiteSpace=wrap;rounded=0;fontStyle=1;fontColor=#FF0000;" vertex="1" parent="1">
          <mxGeometry x="240" y="150" width="60" height="30" as="geometry" />
        </mxCell>
        <mxCell id="LDW5ZXdG8AZrNNYE6y6R-2" value="S1" style="text;html=1;align=center;verticalAlign=middle;whiteSpace=wrap;rounded=0;fontStyle=1;fontColor=#FF0000;" vertex="1" parent="1">
          <mxGeometry x="230" y="245" width="60" height="30" as="geometry" />
        </mxCell>
        <mxCell id="LDW5ZXdG8AZrNNYE6y6R-3" value="S2" style="text;html=1;align=center;verticalAlign=middle;whiteSpace=wrap;rounded=0;fontColor=#FF0000;fontStyle=1" vertex="1" parent="1">
          <mxGeometry x="225" y="450" width="60" height="30" as="geometry" />
        </mxCell>
        <mxCell id="LDW5ZXdG8AZrNNYE6y6R-4" value="&lt;font color=&quot;#ff0000&quot; style=&quot;font-size: 12px;&quot;&gt;S3&lt;/font&gt;" style="text;html=1;align=center;verticalAlign=middle;whiteSpace=wrap;rounded=0;strokeWidth=1;fontSize=12;fontStyle=1" vertex="1" parent="1">
          <mxGeometry x="230" y="690" width="60" height="30" as="geometry" />
        </mxCell>
        <mxCell id="LDW5ZXdG8AZrNNYE6y6R-5" value="S4" style="text;html=1;align=center;verticalAlign=middle;whiteSpace=wrap;rounded=0;fontStyle=1;fontColor=#FF0000;" vertex="1" parent="1">
          <mxGeometry x="915" y="120" width="60" height="30" as="geometry" />
        </mxCell>
        <mxCell id="LDW5ZXdG8AZrNNYE6y6R-6" value="S5" style="text;html=1;align=center;verticalAlign=middle;whiteSpace=wrap;rounded=0;fontStyle=1;fontColor=#FF0000;" vertex="1" parent="1">
          <mxGeometry x="910" y="350" width="60" height="30" as="geometry" />
        </mxCell>
        <mxCell id="LDW5ZXdG8AZrNNYE6y6R-7" value="S9" style="text;html=1;align=center;verticalAlign=middle;whiteSpace=wrap;rounded=0;fontStyle=1;fontColor=#FF0000;" vertex="1" parent="1">
          <mxGeometry x="1280" y="460" width="60" height="30" as="geometry" />
        </mxCell>
        <mxCell id="LDW5ZXdG8AZrNNYE6y6R-8" value="S10" style="text;html=1;align=center;verticalAlign=middle;whiteSpace=wrap;rounded=0;fontStyle=1;fontColor=#FF0000;" vertex="1" parent="1">
          <mxGeometry x="1270" y="690" width="60" height="30" as="geometry" />
        </mxCell>
        <mxCell id="LDW5ZXdG8AZrNNYE6y6R-9" value="S0" style="text;html=1;align=center;verticalAlign=middle;whiteSpace=wrap;rounded=0;fontStyle=1;fontColor=#FF0000;" vertex="1" parent="1">
          <mxGeometry x="1270" y="950" width="60" height="30" as="geometry" />
        </mxCell>
        <mxCell id="LDW5ZXdG8AZrNNYE6y6R-10" value="S6" style="text;html=1;align=center;verticalAlign=middle;whiteSpace=wrap;rounded=0;fontStyle=1;fontColor=#FF0000;" vertex="1" parent="1">
          <mxGeometry x="915" y="610" width="60" height="30" as="geometry" />
        </mxCell>
        <mxCell id="LDW5ZXdG8AZrNNYE6y6R-11" value="S7" style="text;html=1;align=center;verticalAlign=middle;whiteSpace=wrap;rounded=0;fontStyle=1;fontColor=#FF0000;" vertex="1" parent="1">
          <mxGeometry x="910" y="750" width="60" height="30" as="geometry" />
        </mxCell>
        <mxCell id="LDW5ZXdG8AZrNNYE6y6R-12" value="S8" style="text;html=1;align=center;verticalAlign=middle;whiteSpace=wrap;rounded=0;fontStyle=1;fontColor=#FF0000;" vertex="1" parent="1">
          <mxGeometry x="1170" y="370" width="60" height="30" as="geometry" />
        </mxCell>
      </root>
    </mxGraphModel>
  </diagram>
</mxfile>
